<svg width="25" height="24" viewBox="0 0 25 24" fill="none" xmlns="http://www.w3.org/2000/svg">
<path d="M7.94531 6.5V10.9H9.94531V6.5C9.94531 4.685 11.2953 3.2 12.9453 3.2C14.5953 3.2 15.9453 4.685 15.9453 6.5L15.9453 10.9H17.9453V6.5C17.9453 3.464 15.7053 1 12.9453 1C10.1853 1 7.94531 3.464 7.94531 6.5ZM15.9453 13.1V17.5C15.9453 19.315 14.5953 20.8 12.9453 20.8C11.2953 20.8 9.94531 19.315 9.94531 17.5V13.1H7.94531L7.94531 17.5C7.94531 20.536 10.1853 23 12.9453 23C15.7053 23 17.9453 20.536 17.9453 17.5V13.1H15.9453ZM11.9453 16.4V7.6H13.9453V16.4H11.9453Z" fill="#939292"/>
</svg>
