<svg width="16" height="16" viewBox="0 0 16 16" fill="none" xmlns="http://www.w3.org/2000/svg">
<path d="M0.1 8C0.1 3.63923 3.63923 0.1 8 0.1C12.3608 0.1 15.9 3.63923 15.9 8C15.9 12.3608 12.3608 15.9 8 15.9C3.63923 15.9 0.1 12.3608 0.1 8ZM1.5 8C1.5 11.5832 4.41677 14.5 8 14.5C11.5832 14.5 14.5 11.5832 14.5 8C14.5 4.41677 11.5832 1.5 8 1.5C4.41677 1.5 1.5 4.41677 1.5 8Z" fill="#939292" stroke="white" stroke-width="0.2"/>
<path d="M9.09854 7.47185L9.0776 7.53126L9.12214 7.5758L11.8501 10.3038C11.9711 10.4248 11.9711 10.6094 11.8501 10.7304L10.7301 11.8504C10.6092 11.9713 10.4245 11.9713 10.3036 11.8504L7.57556 9.12238L7.53102 9.07784L7.47161 9.09878C6.5298 9.43073 5.43479 9.22961 4.67956 8.47438C3.85763 7.65246 3.68953 6.43151 4.16372 5.43339L5.94614 7.2158L6.01685 7.28651L6.08756 7.2158L7.21556 6.0878L7.28627 6.01709L7.21556 5.94638L5.43286 4.16368C6.42419 3.68993 7.65223 3.8579 8.47414 4.6798C9.22937 5.43503 9.43048 6.53004 9.09854 7.47185Z" fill="#939292" stroke="white" stroke-width="0.2"/>
</svg>
